<svg width="122" height="122" viewBox="0 0 122 122" fill="none" xmlns="http://www.w3.org/2000/svg">
<path d="M86.5 61.0003C86.5 67.7633 83.8134 74.2493 79.0312 79.0315C74.2491 83.8137 67.763 86.5003 61 86.5003C54.237 86.5003 47.751 83.8137 42.9688 79.0315C38.1866 74.2493 35.5 67.7633 35.5 61.0003C35.5 54.2372 38.1866 47.7512 42.9688 42.969C47.751 38.1869 54.237 35.5002 61 35.5002C67.763 35.5002 74.2491 38.1869 79.0312 42.969C83.8134 47.7512 86.5 54.2372 86.5 61.0003ZM86.5 61.0003C86.5 70.3899 92.2063 78.0003 99.25 78.0003C106.294 78.0003 112 70.3899 112 61.0003C112 49.2011 107.909 37.7671 100.423 28.6463C92.9379 19.5255 82.5216 13.2824 70.9492 10.9806C59.3768 8.67876 47.3643 10.4607 36.9584 16.0229C26.5526 21.585 18.3973 30.5832 13.882 41.4842C9.36677 52.3852 8.77098 64.5145 12.1962 75.8056C15.6213 87.0966 22.8556 96.8507 32.6662 103.406C42.4769 109.961 54.2569 112.912 65.9992 111.755C77.7415 110.599 88.7195 105.406 97.0627 97.0629M86.5 61.0003V39.7502" stroke="#F17135" stroke-width="18.1333" stroke-linecap="round" stroke-linejoin="round"/>
</svg>
