<svg width="143" height="143" viewBox="0 0 143 143" fill="none" xmlns="http://www.w3.org/2000/svg">
<path d="M75.3406 141.693C71.3167 141.691 67.2995 141.363 63.3286 140.712C43.9058 137.525 26.5421 126.759 15.0511 110.779C3.56018 94.7986 -1.11843 74.911 2.04285 55.484C3.81185 44.4244 8.07528 33.9127 14.51 24.7455C20.9447 15.5783 29.3819 7.99623 39.182 2.57396C40.8354 1.65014 42.7193 1.22064 44.6098 1.33652C46.5002 1.45241 48.3175 2.10882 49.8457 3.22767C51.4077 4.29643 52.6255 5.79609 53.3508 7.54421C54.0762 9.29234 54.2779 11.2136 53.9314 13.0742L48.62 12.6657L53.6454 13.5645C50.8102 28.604 53.4597 44.1615 61.1132 57.4147C68.7668 70.6679 80.9174 80.7387 95.3606 85.8C106.483 89.6601 118.449 90.4088 129.967 87.9654C131.789 87.6077 133.675 87.7662 135.412 88.4231C137.149 89.0799 138.669 90.2089 139.798 91.6829C140.928 93.1568 141.624 94.917 141.807 96.7652C141.99 98.6133 141.653 100.476 140.835 102.143C134.533 114.057 125.109 124.032 113.571 130.999C102.034 137.966 88.8184 141.662 75.3406 141.693ZM43.5946 11.8077C35.7798 16.2388 28.985 22.265 23.652 29.4944C18.319 36.7239 14.5672 44.9947 12.6404 53.7693C10.7136 62.5439 10.655 71.6258 12.4684 80.4245C14.2819 89.2232 17.9267 97.5417 23.166 104.839C29.4809 113.667 37.9375 120.742 47.7403 125.401C57.543 130.06 68.3698 132.148 79.202 131.47C90.0343 130.791 100.516 127.369 109.661 121.524C118.806 115.679 126.314 107.603 131.478 98.0571C118.337 100.699 104.729 99.7964 92.0512 95.4422C75.3234 89.577 61.2446 77.9228 52.3581 62.585C43.4716 47.2471 40.3633 29.2369 43.5946 11.8077Z" fill="black"/>
</svg>
