<svg width="143" height="143" viewBox="0 0 143 143" fill="none" xmlns="http://www.w3.org/2000/svg">
<path d="M77.6445 26.8125V37.8459C77.6445 41.6175 75.9687 43.4318 72.4786 43.4318C68.9886 43.4318 67.3128 41.6175 67.3128 37.8459V26.8125C67.3128 23.1794 68.9886 21.3651 72.4786 21.3651C75.9687 21.3651 77.6445 23.1794 77.6445 26.8125ZM88.1193 41.336L94.5453 32.2599C96.6412 29.467 99.2956 28.9084 101.946 30.8612C104.596 32.814 104.877 35.33 102.786 38.4045L96.3596 47.342C94.2638 50.4165 91.7524 50.6935 88.9594 48.7407C86.305 46.7834 86.0279 44.4105 88.1193 41.3404V41.336ZM50.412 32.3985L56.9766 41.336C59.0724 44.4105 58.7909 46.7834 55.9979 48.7362C53.3435 50.832 50.832 50.412 48.7362 47.3375L42.1716 38.4C40.0757 35.3255 40.3573 32.9526 43.1502 30.9997C45.8047 28.9039 48.3161 29.324 50.412 32.3985ZM72.4786 49.7149C84.4906 49.7149 94.2638 59.4925 94.2638 71.5C94.2638 83.369 84.4862 93.0081 72.4786 93.0081C60.4711 93.0081 50.6935 83.3735 50.6935 71.5C50.6935 59.488 60.4711 49.7149 72.4786 49.7149ZM31.7013 52.7894L42.3146 56.1409C45.8047 57.2581 47.0649 59.354 45.9477 62.7055C44.969 66.0571 42.5961 67.0357 38.963 65.9186L28.6268 62.567C25.1367 61.4498 23.8765 59.2154 24.8552 55.8639C25.9724 52.6508 28.2112 51.6722 31.7013 52.7894ZM102.781 56.1409L113.256 52.7894C116.889 51.6722 119.123 52.6508 120.098 55.8639C121.215 59.2154 119.959 61.4498 116.326 62.4285L105.99 65.9186C102.5 67.0357 100.265 66.0571 99.1481 62.7055C98.1695 59.354 99.2867 57.2581 102.781 56.1409ZM72.4786 83.512C79.1818 83.512 84.6292 78.0646 84.6292 71.5C84.6292 64.7969 79.1818 59.3495 72.4786 59.3495C65.7755 59.3495 60.4666 64.7969 60.4666 71.5C60.4666 78.0646 65.7755 83.512 72.4786 83.512ZM28.6268 80.299L39.1016 76.9474C42.5916 75.8302 44.969 76.6659 45.9432 80.0219C47.0604 83.3735 45.8047 85.4693 42.3101 86.5865L31.6968 90.0766C28.2067 91.1938 25.9724 90.2151 24.8552 86.8636C23.8765 83.512 25.1367 81.4162 28.6268 80.299ZM105.994 76.9474L116.469 80.299C119.959 81.4162 121.219 83.512 120.102 86.8636C119.123 90.2151 116.889 91.1938 113.26 90.0766L102.786 86.5865C99.1526 85.4693 98.1784 83.3735 99.1526 80.0219C100.27 76.6704 102.504 75.8302 105.994 76.9474ZM42.1761 104.319L48.7406 95.5195C50.8365 92.445 53.3479 92.0295 56.0024 94.1208C58.7953 96.0781 59.0769 98.4511 56.981 101.521L50.4164 110.32C48.3206 113.395 45.8091 113.953 43.0162 111.996C40.3617 110.039 40.0847 107.393 42.1761 104.319ZM96.3596 95.5195L102.786 104.319C104.882 107.393 104.6 110.043 101.946 112C99.2911 113.958 96.6367 113.256 94.5453 110.463L88.1193 101.526C86.0234 98.451 86.305 96.0781 88.9594 94.1253C91.7524 92.168 94.2683 92.445 96.3596 95.5195ZM77.6445 104.877V115.91C77.6445 119.682 75.9687 121.496 72.4786 121.496C68.9886 121.496 67.3128 119.682 67.3128 115.91V104.877C67.3128 101.105 68.9886 99.2912 72.4786 99.2912C75.9687 99.2912 77.6445 101.105 77.6445 104.877Z" fill="black"/>
</svg>
