<svg width="130" height="111" viewBox="0 0 130 111" fill="none" xmlns="http://www.w3.org/2000/svg">
<path d="M120.502 32.1703C120.109 31.7279 119.863 31.0398 119.912 30.45C120.355 20.571 119.028 10.9869 115.685 1.64852C115.243 0.468935 114.702 0.0266034 113.474 0.370649C110.721 1.20619 107.871 1.84513 105.167 2.82812C97.6968 5.53133 90.865 9.46327 84.2299 13.7393C83.5418 14.1816 82.5096 14.4765 81.6741 14.3291C70.8121 12.4122 59.9009 12.5105 48.9898 14.1816C47.9085 14.329 46.5323 14.0833 45.6476 13.5427C37.9312 8.52943 30.0673 3.6145 21.073 1.25533C13.6514 -0.710643 15.175 -1.10384 13.0616 5.62962C10.555 13.6901 9.57202 22.0455 10.1127 30.4992C10.1618 31.089 9.71946 31.8262 9.32627 32.3669C6.08241 36.2497 3.5758 40.5257 2.05217 45.3423C-0.896788 54.6807 -0.306996 64.1173 1.56068 73.5049C5.24688 91.9359 17.6817 104.862 36.0635 108.057C45.5493 109.728 55.3301 109.875 64.2261 110.613C74.1543 109.875 83.3452 109.826 92.2904 108.401C107.92 105.894 119.716 97.588 125.614 82.4992C127.678 77.2402 128.808 71.4897 129.496 65.8867C131.069 53.5502 128.956 41.951 120.502 32.1703ZM111.803 83.4822C110.181 91.1495 105.708 96.4085 98.2374 99.1117C91.0125 101.766 83.5418 102.847 75.9236 103.339C72.2374 103.584 68.5512 103.388 64.865 103.388C54.9369 103.584 45.0087 103.191 35.4246 100.34C23.383 96.7525 17.9765 89.5767 17.6325 76.9945C17.4851 72.5219 17.9765 68.1967 20.09 64.1665C24.2677 56.0568 31.4926 53.2062 40.0446 53.0587C44.7138 53.0096 49.4321 53.4028 54.1505 53.8451C64.0295 54.7298 73.8102 53.796 83.6401 53.2553C87.9652 53.0096 92.3886 52.9113 96.6155 53.6485C105.708 55.2213 112.589 64.2648 112.736 74.4387C112.736 77.4368 112.392 80.5332 111.803 83.4822Z" fill="#90BE6D"/>
<path d="M37.0957 66.624C34.3924 69.4255 33.4586 72.9642 33.3112 76.1098C33.3112 80.8281 34.6873 84.6126 37.0957 87.0701C40.4378 90.4614 45.0087 90.3631 48.2034 86.9226C53.02 81.7128 52.9709 71.9321 48.2034 66.7714C45.0087 63.2818 40.3395 63.2327 37.0957 66.624Z" fill="#90BE6D"/>
<path d="M82.3622 66.2308C76.8575 71.2931 76.8575 82.45 82.3622 87.4633C85.5569 90.3631 89.882 90.2156 92.8801 87.1192C95.6325 84.2686 96.6155 80.6807 96.7138 76.7979C96.6155 72.9151 95.6325 69.3763 92.831 66.5256C89.8329 63.4292 85.5077 63.3309 82.3622 66.2308Z" fill="#90BE6D"/>
</svg>
